<svg width="34" height="34" viewBox="0 0 34 34" fill="none" xmlns="http://www.w3.org/2000/svg">
<path d="M0 30.6001C5.63333 30.6001 10.2 26.0333 10.2 20.4001C10.2 14.7667 5.63333 10.2 0 10.2V17.34C1.68998 17.34 3.05998 18.71 3.05998 20.4001C3.05998 22.09 1.68998 23.4601 0 23.4601V30.6001Z" fill="#76DECC"/>
<path d="M33.9997 13.6C32.2567 13.0479 30.4005 12.7499 28.4747 12.7499C18.3816 12.7499 10.1997 20.932 10.1997 31.0249C10.1997 32.038 10.2821 33.0318 10.4406 34H21.7955C21.3901 33.0912 21.1648 32.0844 21.1648 31.0249C21.1648 26.9878 24.4375 23.7149 28.4747 23.7149C30.6812 23.7149 32.6593 24.6926 33.9997 26.2383V13.6Z" fill="#EA6CBC"/>
<path d="M1.79346 0C2.63911 7.64992 9.12477 13.6001 17.0001 13.6001C24.8753 13.6001 31.361 7.64992 32.2067 0H21.2649C20.5894 1.69339 18.9344 2.88999 17.0001 2.88999C15.0657 2.88999 13.4108 1.69339 12.7352 0H1.79346Z" fill="#2A27C9"/>
</svg>
